<svg version="1.1" id="Layer_1" xmlns="http://www.w3.org/2000/svg" xmlns:xlink="http://www.w3.org/1999/xlink" x="0px" y="0px"
	 width="100%" viewBox="0 0 300 115" enable-background="new 0 0 300 115" xml:space="preserve">
<path fill="#FEFEFD" opacity="1.000000" stroke="none" 
	d="
M187.000000,116.000000 
	C124.666687,116.000000 62.833370,116.000000 1.000041,116.000000 
	C1.000028,77.666695 1.000028,39.333393 1.000014,1.000067 
	C100.999939,1.000045 200.999878,1.000045 300.999878,1.000022 
	C300.999908,39.333263 300.999908,77.666527 300.999939,115.999893 
	C263.166656,116.000000 225.333328,116.000000 187.000000,116.000000 
M60.370319,64.873962 
	C58.505898,67.208572 56.641476,69.543175 54.553093,72.158226 
	C42.484734,60.074604 31.462955,49.038887 20.564157,38.126308 
	C8.831189,43.602310 4.711951,58.260162 13.149838,67.147209 
	C26.319777,81.018204 40.502590,93.927513 54.840862,107.810349 
	C67.981804,94.249115 82.122887,80.384369 95.343361,65.691292 
	C101.537476,58.807213 98.509163,45.793259 90.978783,40.209312 
	C88.573036,38.425396 86.784264,38.393295 84.549728,40.687572 
	C76.760849,48.684711 68.778366,56.493275 60.370319,64.873962 
M43.746746,11.526587 
	C42.413681,10.854138 41.136177,10.021160 39.737873,9.537202 
	C33.877956,7.509061 27.230553,9.883026 23.508757,15.226364 
	C20.129704,20.077633 19.770906,26.959044 23.742891,31.028009 
	C33.590351,41.115910 43.859901,50.791782 53.359726,60.048382 
	C62.998173,50.865807 73.088776,41.717838 82.605438,32.007385 
	C88.113197,26.387484 87.293152,18.493788 81.657982,12.830820 
	C76.628120,7.776149 68.898407,7.276502 63.204647,12.226021 
	C59.997509,15.013947 57.539871,18.664074 54.079815,22.701500 
	C50.118046,18.343115 47.226158,15.161716 43.746746,11.526587 
M128.090286,72.178734 
	C131.975281,73.292397 131.685364,70.469650 131.721588,68.188789 
	C131.801849,63.137173 131.746582,58.083405 131.746582,53.030514 
	C134.438995,55.209087 136.025665,57.643425 137.593719,60.089695 
	C141.123367,65.596123 142.050262,65.585754 145.734772,59.983902 
	C147.297638,57.607746 148.866348,55.235443 150.432404,52.861385 
	C151.446594,58.330746 151.224869,63.321846 151.579285,68.271690 
	C151.688156,69.792259 153.373260,71.199959 154.336594,72.659348 
	C155.139694,71.210609 156.590424,69.782318 156.636932,68.309692 
	C156.873367,60.820984 156.861465,53.317543 156.650803,45.827305 
	C156.607620,44.291573 155.343628,42.790173 154.642365,41.272942 
	C153.379944,42.175632 151.787811,42.836075 150.914520,44.024666 
	C147.808105,48.252647 144.946442,52.660477 141.725235,57.392220 
	C138.370789,52.276695 135.546692,47.759453 132.465363,43.425072 
	C131.733124,42.395054 130.194839,41.649227 128.916061,41.434166 
	C128.380539,41.344101 126.948326,42.981590 126.954781,43.825779 
	C127.025673,53.105324 127.300110,62.383308 128.090286,72.178734 
M200.348206,72.785667 
	C210.796417,72.597504 216.285690,66.975906 216.183426,56.568726 
	C216.083847,46.434345 210.607666,41.122181 200.214081,41.083191 
	C198.049896,41.075073 195.881927,41.163353 193.722336,41.063622 
	C190.529068,40.916157 189.184143,42.380672 189.229706,45.536976 
	C189.311401,51.196026 189.269180,56.857189 189.247147,62.517345 
	C189.202469,73.996132 188.666504,72.757103 200.348206,72.785667 
M263.618866,47.260017 
	C262.916321,48.758823 262.031647,50.200527 261.541016,51.765759 
	C258.497925,61.473804 264.707916,71.985085 273.957886,72.905609 
	C281.765106,73.682556 287.994141,69.570213 290.344604,62.087337 
	C292.666840,54.694328 289.842316,46.574017 283.648468,42.836536 
	C277.048370,38.853920 269.934448,40.241669 263.618866,47.260017 
M163.447433,59.464172 
	C163.452805,62.624443 163.089172,65.849304 163.626038,68.916542 
	C163.877884,70.355453 165.766388,72.452271 167.084412,72.588013 
	C171.527939,73.045601 176.058411,72.919838 180.532104,72.640488 
	C181.656509,72.570274 182.693069,71.092949 183.770004,70.262291 
	C182.625031,69.371323 181.542358,67.828621 180.323364,67.712128 
	C176.727463,67.368469 173.077606,67.589394 169.329102,67.589394 
	C169.329102,64.499313 169.329102,61.815132 169.329102,58.968857 
	C172.408508,58.968857 175.107590,59.247658 177.706589,58.858326 
	C179.135056,58.644341 180.395004,57.305317 181.730927,56.473545 
	C180.350876,55.598583 179.051483,54.187553 177.573242,53.965111 
	C174.859100,53.556698 172.039566,53.848667 169.191635,53.848667 
	C169.191635,51.030766 169.191635,48.772991 169.191635,46.182590 
	C173.118790,46.182590 176.778900,46.361649 180.403030,46.079041 
	C181.567551,45.988239 182.637085,44.679394 183.750076,43.927807 
	C182.635239,42.990597 181.578705,41.341930 180.394989,41.244896 
	C176.263931,40.906235 172.086304,41.192249 167.931442,41.069298 
	C164.754349,40.975288 163.358429,42.324047 163.427322,45.505787 
	C163.520905,49.828453 163.448563,54.154709 163.447433,59.464172 
M256.513153,43.216030 
	C249.506180,39.546532 241.824020,40.477718 236.821640,45.602905 
	C232.103043,50.437340 231.015335,58.936352 234.328247,65.085960 
	C237.609879,71.177521 245.059860,74.489235 252.264389,72.556053 
	C254.115631,72.059319 257.046478,69.815437 256.902771,68.709183 
	C256.422974,65.016258 253.590958,66.947952 251.463348,67.401535 
	C243.707092,69.055061 238.069107,64.660446 238.045212,56.984699 
	C238.020950,49.190834 243.955048,44.793278 251.953690,46.861710 
	C254.854645,47.611893 257.406158,48.458813 256.513153,43.216030 
M226.384338,71.320183 
	C226.562256,62.249771 226.824890,53.179081 226.794830,44.109364 
	C226.791611,43.139191 225.081161,42.174675 224.162689,41.207531 
	C223.245956,42.379757 221.569641,43.530041 221.535049,44.727745 
	C221.300858,52.834293 221.313766,60.952812 221.471878,69.063072 
	C221.522980,71.683205 222.600510,73.748451 226.384338,71.320183 
z"/>
<path fill="#FFBD59" opacity="1.000000" stroke="none" 
	d="
M60.619892,64.623734 
	C68.778366,56.493275 76.760849,48.684711 84.549728,40.687572 
	C86.784264,38.393295 88.573036,38.425396 90.978783,40.209312 
	C98.509163,45.793259 101.537476,58.807213 95.343361,65.691292 
	C82.122887,80.384369 67.981804,94.249115 54.840862,107.810349 
	C40.502590,93.927513 26.319777,81.018204 13.149838,67.147209 
	C4.711951,58.260162 8.831189,43.602310 20.564157,38.126308 
	C31.462955,49.038887 42.484734,60.074604 54.553093,72.158226 
	C56.641476,69.543175 58.505898,67.208572 60.619892,64.623734 
z"/>
<path fill="#FFBD59" opacity="1.000000" stroke="none" 
	d="
M44.040508,11.753453 
	C47.226158,15.161716 50.118046,18.343115 54.079815,22.701500 
	C57.539871,18.664074 59.997509,15.013947 63.204647,12.226021 
	C68.898407,7.276502 76.628120,7.776149 81.657982,12.830820 
	C87.293152,18.493788 88.113197,26.387484 82.605438,32.007385 
	C73.088776,41.717838 62.998173,50.865807 53.359726,60.048382 
	C43.859901,50.791782 33.590351,41.115910 23.742891,31.028009 
	C19.770906,26.959044 20.129704,20.077633 23.508757,15.226364 
	C27.230553,9.883026 33.877956,7.509061 39.737873,9.537202 
	C41.136177,10.021160 42.413681,10.854138 44.040508,11.753453 
z"/>
<path fill="#151515" opacity="1.000000" stroke="none" 
	d="
M127.804810,71.920227 
	C127.300110,62.383308 127.025673,53.105324 126.954781,43.825779 
	C126.948326,42.981590 128.380539,41.344101 128.916061,41.434166 
	C130.194839,41.649227 131.733124,42.395054 132.465363,43.425072 
	C135.546692,47.759453 138.370789,52.276695 141.725235,57.392220 
	C144.946442,52.660477 147.808105,48.252647 150.914520,44.024666 
	C151.787811,42.836075 153.379944,42.175632 154.642365,41.272945 
	C155.343628,42.790173 156.607620,44.291573 156.650803,45.827305 
	C156.861465,53.317543 156.873367,60.820984 156.636932,68.309692 
	C156.590424,69.782318 155.139694,71.210609 154.336594,72.659348 
	C153.373260,71.199959 151.688156,69.792259 151.579285,68.271690 
	C151.224869,63.321846 151.446594,58.330746 150.432404,52.861385 
	C148.866348,55.235443 147.297638,57.607746 145.734772,59.983902 
	C142.050262,65.585754 141.123367,65.596123 137.593719,60.089695 
	C136.025665,57.643425 134.438995,55.209087 131.746582,53.030514 
	C131.746582,58.083405 131.801849,63.137173 131.721588,68.188789 
	C131.685364,70.469650 131.975281,73.292397 127.804810,71.920227 
z"/>
<path fill="#191919" opacity="1.000000" stroke="none" 
	d="
M199.886505,72.785660 
	C188.666504,72.757103 189.202469,73.996132 189.247147,62.517345 
	C189.269180,56.857189 189.311401,51.196026 189.229706,45.536976 
	C189.184143,42.380672 190.529068,40.916157 193.722336,41.063622 
	C195.881927,41.163353 198.049896,41.075073 200.214081,41.083191 
	C210.607666,41.122181 216.083847,46.434345 216.183426,56.568726 
	C216.285690,66.975906 210.796417,72.597504 199.886505,72.785660 
M210.452637,55.642818 
	C209.056717,46.848320 204.960327,44.506031 195.125229,46.844345 
	C195.125229,53.700100 195.125229,60.538723 195.125229,67.332008 
	C207.273666,68.250061 209.919266,66.330299 210.452637,55.642818 
z"/>
<path fill="#141414" opacity="1.000000" stroke="none" 
	d="
M263.835205,46.959717 
	C269.934448,40.241669 277.048370,38.853920 283.648468,42.836536 
	C289.842316,46.574017 292.666840,54.694328 290.344604,62.087337 
	C287.994141,69.570213 281.765106,73.682556 273.957886,72.905609 
	C264.707916,71.985085 258.497925,61.473804 261.541016,51.765759 
	C262.031647,50.200527 262.916321,48.758823 263.835205,46.959717 
M266.320770,56.603966 
	C266.610779,58.222874 266.639191,59.947269 267.241272,61.440338 
	C268.862762,65.461517 271.711334,67.879456 276.347382,67.693268 
	C281.006134,67.506172 283.607574,64.738976 284.935394,60.688477 
	C287.035767,54.281151 283.833557,47.717270 278.120148,46.243031 
	C272.331787,44.749458 268.008514,48.276485 266.320770,56.603966 
z"/>
<path fill="#151515" opacity="1.000000" stroke="none" 
	d="
M163.447388,58.971802 
	C163.448563,54.154709 163.520905,49.828453 163.427322,45.505787 
	C163.358429,42.324047 164.754349,40.975288 167.931442,41.069298 
	C172.086304,41.192249 176.263931,40.906235 180.394989,41.244896 
	C181.578705,41.341930 182.635239,42.990597 183.750076,43.927803 
	C182.637085,44.679394 181.567551,45.988239 180.403030,46.079041 
	C176.778900,46.361649 173.118790,46.182590 169.191635,46.182590 
	C169.191635,48.772991 169.191635,51.030766 169.191635,53.848667 
	C172.039566,53.848667 174.859100,53.556698 177.573242,53.965111 
	C179.051483,54.187553 180.350876,55.598583 181.730927,56.473549 
	C180.395004,57.305317 179.135056,58.644341 177.706589,58.858326 
	C175.107590,59.247658 172.408508,58.968857 169.329102,58.968857 
	C169.329102,61.815132 169.329102,64.499313 169.329102,67.589394 
	C173.077606,67.589394 176.727463,67.368469 180.323364,67.712128 
	C181.542358,67.828621 182.625031,69.371323 183.770004,70.262283 
	C182.693069,71.092949 181.656509,72.570274 180.532104,72.640488 
	C176.058411,72.919838 171.527939,73.045601 167.084412,72.588013 
	C165.766388,72.452271 163.877884,70.355453 163.626038,68.916542 
	C163.089172,65.849304 163.452805,62.624443 163.447388,58.971802 
z"/>
<path fill="#141414" opacity="1.000000" stroke="none" 
	d="
M256.717438,43.546890 
	C257.406158,48.458813 254.854645,47.611893 251.953690,46.861710 
	C243.955048,44.793278 238.020950,49.190834 238.045212,56.984699 
	C238.069107,64.660446 243.707092,69.055061 251.463348,67.401535 
	C253.590958,66.947952 256.422974,65.016258 256.902771,68.709183 
	C257.046478,69.815437 254.115631,72.059319 252.264389,72.556053 
	C245.059860,74.489235 237.609879,71.177521 234.328247,65.085960 
	C231.015335,58.936352 232.103043,50.437340 236.821640,45.602905 
	C241.824020,40.477718 249.506180,39.546532 256.717438,43.546890 
z"/>
<path fill="#222222" opacity="1.000000" stroke="none" 
	d="
M226.128494,71.633148 
	C222.600510,73.748451 221.522980,71.683205 221.471878,69.063072 
	C221.313766,60.952812 221.300858,52.834293 221.535049,44.727745 
	C221.569641,43.530041 223.245956,42.379757 224.162689,41.207535 
	C225.081161,42.174675 226.791611,43.139191 226.794830,44.109364 
	C226.824890,53.179081 226.562256,62.249771 226.128494,71.633148 
z"/>
<path fill="#F4F4F4" opacity="1.000000" stroke="none" 
	d="
M210.456665,56.082676 
	C209.919266,66.330299 207.273666,68.250061 195.125229,67.332008 
	C195.125229,60.538723 195.125229,53.700100 195.125229,46.844345 
	C204.960327,44.506031 209.056717,46.848320 210.456665,56.082676 
z"/>
<path fill="#F5F5F5" opacity="1.000000" stroke="none" 
	d="
M266.345276,56.216629 
	C268.008514,48.276485 272.331787,44.749458 278.120148,46.243031 
	C283.833557,47.717270 287.035767,54.281151 284.935394,60.688477 
	C283.607574,64.738976 281.006134,67.506172 276.347382,67.693268 
	C271.711334,67.879456 268.862762,65.461517 267.241272,61.440338 
	C266.639191,59.947269 266.610779,58.222874 266.345276,56.216629 
z"/>
</svg>